<svg xmlns="http://www.w3.org/2000/svg" xmlns:xlink="http://www.w3.org/1999/xlink" viewBox="0,0,256,256" width="64px" height="64px"><g transform="translate(64,64) scale(0.5,0.5)"><g fill="none" fill-rule="nonzero" stroke="none" stroke-width="1" stroke-linecap="butt" stroke-linejoin="miter" stroke-miterlimit="10" stroke-dasharray="" stroke-dashoffset="0" font-family="none" font-weight="none" font-size="none" text-anchor="none" style="mix-blend-mode: normal"><g transform="scale(4,4)"><path d="M32,4c-15.46397,0 -28,12.53603 -28,28c0,15.46397 12.53603,28 28,28c15.46397,0 28,-12.53603 28,-28c0,-15.46397 -12.53603,-28 -28,-28z" fill="#86a2b2"></path><path d="M32,9c-12.70255,0 -23,10.29745 -23,23c0,12.70255 10.29745,23 23,23c12.70255,0 23,-10.29745 23,-23c0,-12.70255 -10.29745,-23 -23,-23z" fill="#72aed5"></path><path d="M32,60c-1.194,0 -2.429,-0.102 -3.885,-0.32c-0.49,-0.074 -0.852,-0.494 -0.852,-0.989v-19.065h-5.186c-0.552,0 -1,-0.447 -1,-1v-6.572c0,-0.552 0.448,-1 1,-1h5.186v-3.373c0,-7.469 3.646,-11.417 10.544,-11.417c2.892,0 4.462,0.212 5.217,0.313c0.496,0.067 0.91,0.497 0.91,0.997v5.736c0,0.552 -0.447,1 -1,1h-4.104c-2.022,0 -2.447,2.257 -2.447,4.151v2.592h6.486c0.292,0 0.569,0.127 0.759,0.349c0.19,0.222 0.274,0.515 0.229,0.803l-1.016,6.572c-0.075,0.488 -0.495,0.848 -0.988,0.848h-5.471v19.118c0,0.5 -0.369,0.923 -0.865,0.991c-1.324,0.182 -2.442,0.266 -3.517,0.266z" fill="#ffffff"></path><path d="M37.808,17.263c2.882,0 4.405,0.214 5.127,0.311v5.736h-4.104c-2.554,0 -3.446,2.422 -3.446,5.152v3.592h7.486l-1.016,6.572h-6.47v20.119c-1.11,0.15 -2.234,0.255 -3.385,0.255c-1.273,0 -2.514,-0.126 -3.737,-0.309v-20.065h-6.186v-6.572h6.186v-4.373c0,-7.239 3.528,-10.418 9.545,-10.418M42.871,32.054h0.005M37.808,15.263c-7.444,0 -11.544,4.41 -11.544,12.418v2.373h-4.186c-1.105,0 -2,0.895 -2,2v6.572c0,1.105 0.895,2 2,2h4.186v18.065c0,0.99 0.724,1.831 1.703,1.978c1.504,0.226 2.785,0.331 4.033,0.331c1.117,0 2.278,-0.087 3.653,-0.274c0.992,-0.135 1.731,-0.981 1.731,-1.982v-18.118h4.47c0.987,0 1.826,-0.719 1.977,-1.694l1,-6.468c0.028,-0.132 0.042,-0.269 0.042,-0.409c0,-1.105 -0.893,-2 -1.997,-2h-0.005h-5.486v-1.592c0,-1.177 0.188,-3.152 1.446,-3.152h4.104c1.105,0 2,-0.895 2,-2v-5.736c0,-1.001 -0.741,-1.848 -1.733,-1.982c-0.82,-0.111 -2.436,-0.33 -5.394,-0.33z" fill="#8d6c9f"></path><path d="M52.42,11.407c-5.471,-5.425 -12.716,-8.407 -20.415,-8.407c-0.042,0 -0.085,0 -0.127,0c-7.746,0.033 -15.017,3.08 -20.471,8.581c-5.454,5.501 -8.44,12.796 -8.407,20.542c0.033,7.746 3.08,15.016 8.58,20.47c5.471,5.425 12.716,8.407 20.415,8.407c0.042,0 0.085,0 0.127,0c7.746,-0.033 15.017,-3.08 20.471,-8.581c5.454,-5.501 8.44,-12.796 8.407,-20.542c-0.033,-7.746 -3.08,-15.016 -8.58,-20.47zM51.173,51.011c-5.078,5.121 -11.847,7.958 -19.059,7.989c-7.206,0.023 -14.004,-2.749 -19.125,-7.827c-5.122,-5.078 -7.959,-11.847 -7.989,-19.059c-0.03,-7.212 2.749,-14.004 7.827,-19.125c5.078,-5.121 11.847,-7.958 19.059,-7.989c0.04,0 0.079,0 0.119,0c7.167,0 13.913,2.777 19.006,7.827c5.122,5.078 7.959,11.847 7.989,19.059c0.03,7.212 -2.749,14.004 -7.827,19.125z" fill="#8d6c9f"></path><path d="M24.379,4.018c-7.434,2.025 -13.639,6.807 -17.49,13.474c-0.021,0.036 -0.043,0.074 -0.064,0.11c-3.845,6.724 -4.843,14.545 -2.807,22.019c2.036,7.474 6.86,13.708 13.584,17.553c6.724,3.845 14.544,4.842 22.017,2.807c7.434,-2.025 13.639,-6.807 17.49,-13.474c0.021,-0.036 0.043,-0.074 0.064,-0.11c3.845,-6.724 4.843,-14.545 2.807,-22.019c-2.036,-7.474 -6.86,-13.708 -13.584,-17.553c-6.724,-3.845 -14.543,-4.842 -22.017,-2.807zM58.051,24.904c1.895,6.958 0.967,14.239 -2.613,20.5c-3.584,6.252 -9.384,10.752 -16.342,12.647c-6.959,1.896 -14.239,0.968 -20.5,-2.613c-6.26,-3.581 -10.752,-9.384 -12.647,-16.342c-1.895,-6.958 -0.967,-14.239 2.613,-20.5c0.02,-0.035 0.04,-0.068 0.06,-0.103c3.584,-6.206 9.363,-10.659 16.283,-12.544c6.959,-1.896 14.239,-0.968 20.5,2.613c6.261,3.581 10.751,9.384 12.646,16.342z" fill="#8d6c9f"></path><path d="M49.364,41.925c0,0.001 -0.001,0.003 -0.002,0.004c-0.274,0.479 -0.107,1.089 0.372,1.364l1.736,0.992c0.478,0.274 1.087,0.109 1.363,-0.368c0,-0.001 0.002,-0.003 0.002,-0.003c0.275,-0.48 0.108,-1.09 -0.371,-1.365l-1.736,-0.992c-0.48,-0.274 -1.089,-0.109 -1.364,0.368zM52.413,36.747c-0.535,-0.141 -1.08,0.182 -1.222,0.712c-0.14,0.535 0.178,1.082 0.712,1.222l1.934,0.51c0.446,0.118 0.9,-0.085 1.12,-0.466c0.044,-0.076 0.078,-0.158 0.101,-0.247c0.14,-0.535 -0.178,-1.082 -0.712,-1.222zM42.618,48.728c-0.477,0.278 -0.638,0.89 -0.36,1.367l1.007,1.728c0.278,0.477 0.89,0.638 1.368,0.36c0.155,-0.091 0.278,-0.217 0.362,-0.363c0.174,-0.3 0.186,-0.684 -0.001,-1.004l-1.007,-1.728c-0.279,-0.477 -0.891,-0.638 -1.369,-0.36zM52.799,31.664c-0.553,0.003 -0.999,0.45 -0.996,1.005c0.002,0.552 0.452,0.998 1.004,0.995l2,-0.008c0.37,-0.002 0.691,-0.203 0.863,-0.501c0.086,-0.148 0.134,-0.32 0.134,-0.504c-0.002,-0.552 -0.452,-0.998 -1.004,-0.995zM46.438,45.772c-0.381,0.386 -0.387,1.025 0.005,1.414l1.42,1.409c0.392,0.389 1.025,0.386 1.414,-0.005c0.062,-0.063 0.115,-0.131 0.157,-0.205c0.221,-0.383 0.167,-0.883 -0.163,-1.21l-1.42,-1.409c-0.391,-0.388 -1.024,-0.386 -1.413,0.006zM24.227,11.478c0.713,-0.258 1.452,-0.48 2.196,-0.658c0.156,-0.037 0.293,-0.11 0.408,-0.206c0.281,-0.236 0.421,-0.62 0.33,-1c-0.129,-0.537 -0.67,-0.868 -1.206,-0.738c-0.813,0.195 -1.622,0.438 -2.406,0.72c-0.518,0.187 -0.789,0.76 -0.601,1.28c0.185,0.52 0.758,0.789 1.279,0.602zM11.32,24.476c0.129,-0.109 0.233,-0.252 0.295,-0.423c1.626,-4.475 4.777,-8.304 8.868,-10.785c0.477,-0.295 0.624,-0.902 0.338,-1.374c-0.286,-0.472 -0.902,-0.623 -1.373,-0.337c-4.483,2.717 -7.93,6.912 -9.71,11.813c-0.189,0.52 0.078,1.093 0.599,1.282c0.345,0.127 0.718,0.047 0.983,-0.176z" fill="#8d6c9f"></path></g></g></g></svg>